<?xml version="1.0" encoding="UTF-8"?>
<svg width="454px" height="608px" viewBox="0 0 454 608" version="1.1" xmlns="http://www.w3.org/2000/svg" xmlns:xlink="http://www.w3.org/1999/xlink">
    <!-- Generator: sketchtool 57.1 (101010) - https://sketch.com -->
    <title>4EE44CF8-C14D-4AA7-80FD-A81E8C705C2E</title>
    <desc>Created with sketchtool.</desc>
    <g id="Page-2" stroke="none" stroke-width="1" fill="none" fill-rule="evenodd">
        <g id="form-factor" transform="translate(-297.000000, -543.000000)" stroke="#F2F2F2">
            <g id="Group-12" transform="translate(300.000000, 546.000000)">
                <rect id="Rectangle" stroke-width="5" x="0" y="0" width="448" height="588"></rect>
                <rect id="Rectangle" stroke-width="5" x="20" y="0" width="407" height="588"></rect>
                <circle id="Oval" stroke-width="1.14" cx="224" cy="525" r="19"></circle>
                <circle id="Oval" stroke-width="1.14" cx="224.5" cy="524.5" r="8.5"></circle>
                <path d="M224,510 L224,519" id="Path" stroke-width="1.14"></path>
                <path d="M28,589.702703 L28,589 L55,589 L55,590.405405 L55,591.810811 C53.9054054,597.081081 49.527027,600.945946 44.4189189,602 L38.9459459,602 C32.7432432,600.945946 28,595.675676 28,589.702703 Z" id="Path" stroke-width="5"></path>
                <path d="M394,589.702703 L394,589 L420,589 L420,590.405405 L420,591.810811 C418.931507,596.72973 415.013699,600.945946 409.671233,602 L404.328767,602 C398.630137,600.945946 394,595.675676 394,589.702703 Z" id="Path" stroke-width="5"></path>
                <circle id="Oval" stroke-width="1.14" cx="223.5" cy="491.5" r="2.5"></circle>
            </g>
        </g>
    </g>
</svg>