<?xml version="1.0" encoding="UTF-8"?>
<svg width="333px" height="209px" viewBox="0 0 333 209" version="1.1" xmlns="http://www.w3.org/2000/svg" xmlns:xlink="http://www.w3.org/1999/xlink">
    <!-- Generator: sketchtool 57.1 (101010) - https://sketch.com -->
    <title>74FD6327-DFDC-48CF-8B8E-4EE060220C66</title>
    <desc>Created with sketchtool.</desc>
    <g id="Page-1" stroke="none" stroke-width="1" fill="none" fill-rule="evenodd">
        <g id="otp-stage-1" transform="translate(-125.000000, -30.000000)" fill-rule="nonzero">
            <g id="undraw_two_factor_authentication_namy" transform="translate(125.000000, 30.000000)">
                <path d="M333,86.2390103 L332.438017,86.2390103 L332.438017,70.8859453 C332.438019,68.5292422 331.499243,66.2690631 329.82821,64.6026241 C328.157177,62.936185 325.890769,62 323.527574,62 L290.910443,62 C288.547247,62 286.28084,62.936185 284.609807,64.6026241 C282.938773,66.2690631 282,68.5292422 282,70.8859453 L282,155.114052 C282,157.470755 282.938773,159.730934 284.609807,161.397374 C286.28084,163.063813 288.547247,164 290.910443,164 L323.527574,164 C325.89077,164 328.157177,163.063813 329.82821,161.397374 C331.499243,159.730934 332.438019,157.470755 332.438017,155.114052 L332.438017,97.1675826 L333,97.1675826 L333,86.2390103 Z" id="Path" fill="#3F3D56"></path>
                <path d="M330,70.6763695 L330,155.320596 C330,159.009452 327.025555,162 323.356562,162 L290.64042,162 C288.878809,162 287.18945,161.295919 285.944086,160.043243 C284.698722,158.790568 283.999398,157.091744 284,155.320596 L284,70.6763695 C284,66.989134 286.973039,64 290.64042,64 L294.60958,64 C294.214084,64.9782212 294.328259,66.0901305 294.914189,66.9664813 C295.500119,67.8428321 296.481101,68.3689003 297.531365,68.3699873 L316.184908,68.3699873 C317.236371,68.3719843 318.219554,67.8465846 318.806151,66.969231 C319.392747,66.0918773 319.505468,64.9781698 319.106672,64 L323.356562,64 C327.024526,64 329.99851,66.988548 330,70.6763695 Z" id="Path" fill="#D0CDE1"></path>
                <rect id="Rectangle" fill="#6C63FF" x="286" y="108" width="38" height="10"></rect>
                <path d="M326.085938,116 L288.914063,116 C288.409468,115.999448 288.000551,115.589365 288,115.083333 L288,105.916667 C288.000551,105.410635 288.409468,105.000552 288.914062,105 L326.085937,105 C326.590532,105.000552 326.999449,105.410635 327,105.916667 L327,115.083333 C326.999449,115.589365 326.590532,115.999448 326.085938,116 L326.085938,116 Z M288.914063,105.611111 C288.745858,105.61128 288.609375,105.747983 288.609375,105.916667 L288.609375,115.083333 C288.609375,115.25204 288.745835,115.388776 288.914063,115.388889 L326.085938,115.388889 C326.254165,115.388776 326.390625,115.25204 326.390625,115.083333 L326.390625,105.916667 C326.390625,105.747983 326.254142,105.61128 326.085938,105.611111 L288.914063,105.611111 Z" id="Shape" fill="#3F3D56"></path>
                <rect id="Rectangle" fill="#3F3D56" x="291" y="113" width="4" height="1"></rect>
                <rect id="Rectangle" fill="#3F3D56" x="297" y="113" width="4" height="1"></rect>
                <rect id="Rectangle" fill="#3F3D56" x="304" y="113" width="4" height="1"></rect>
                <rect id="Rectangle" fill="#3F3D56" x="311" y="113" width="4" height="1"></rect>
                <rect id="Rectangle" fill="#3F3D56" x="317" y="113" width="4" height="1"></rect>
                <path d="M330,146.803437 L330,155.359612 C330,159.02692 327.025555,162 323.356562,162 L290.64042,162 C288.878809,162 287.18945,161.300031 285.944086,160.054673 C284.698722,158.809315 283.999398,157.120414 284,155.359612 L284,116 L330,146.803437 Z" id="Path" fill="#000000" opacity="0.1"></path>
                <rect id="Rectangle" fill="#D0CDE1" x="30" y="139" width="143" height="70"></rect>
                <path d="M137,209 L30.6066619,209 C30.2720204,208.999021 30,208.729421 30,208.396552 L30,139.603448 C30,139.270577 30.2720177,139.000973 30.6066619,139 L31.9534515,139 L137,209 Z" id="Path" fill="#000000" opacity="0.1"></path>
                <rect id="Rectangle" fill="#3F3D56" x="96" y="148" width="222" height="1"></rect>
                <path d="M165.721549,1.31080991 L102.470601,1.31080991 L102.470601,0 L73.7901419,0 L73.7901419,1.31080991 L10.2784506,1.31080991 C9.14373469,1.3108091 8.05549358,1.76404658 7.25312828,2.57081511 C6.45076298,3.37758363 6,4.47179679 6,5.61273978 L6,92.6980549 C6,95.0739491 7.91552375,97 10.2784506,97 L165.721549,97 C168.084476,97 170,95.0739484 170,92.6980549 L170,5.61273978 C170,4.47179679 169.549237,3.37758363 168.746872,2.57081511 C167.944506,1.76404658 166.856265,1.3108091 165.721549,1.31080991 Z" id="Path" fill="#3F3D56"></path>
                <rect id="Rectangle" fill="#D0CDE1" x="12" y="9" width="153" height="86"></rect>
                <circle id="Oval" fill="#6C63FF" cx="88.5" cy="4.5" r="1.5"></circle>
                <path d="M57.1666667,41 L53.8333333,41 C53.3733042,40.9994979 53.0005021,40.6266958 53,40.1666667 L53,36.8333333 C53.0005021,36.3733042 53.3733042,36.0005021 53.8333333,36 L57.1666667,36 C57.6266958,36.0005021 57.9994979,36.3733042 58,36.8333333 L58,40.1666667 C57.9994979,40.6266958 57.6266958,40.9994979 57.1666667,41 L57.1666667,41 Z M53.8333333,36.5555556 C53.6800034,36.5557545 53.5557545,36.6800034 53.5555556,36.8333333 L53.5555556,40.1666667 C53.5557545,40.3199966 53.6800034,40.4442455 53.8333333,40.4444444 L57.1666667,40.4444444 C57.3199966,40.4442455 57.4442455,40.3199966 57.4444444,40.1666667 L57.4444444,36.8333333 C57.4442455,36.6800034 57.3199966,36.5557545 57.1666667,36.5555556 L53.8333333,36.5555556 Z" id="Shape" fill="#3F3D56"></path>
                <rect id="Rectangle" fill="#3F3D56" x="54" y="40" width="69" height="1"></rect>
                <rect id="Rectangle" fill="#6C63FF" x="104" y="58" width="16" height="4"></rect>
                <path d="M122.072727,61 L106.927273,61 C106.415386,60.9994979 106.000559,60.6266958 106,60.1666667 L106,56.8333333 C106.000559,56.3733042 106.415386,56.0005021 106.927273,56 L122.072727,56 C122.584614,56.0005021 122.999441,56.3733042 123,56.8333333 L123,60.1666667 C122.999441,60.6266958 122.584614,60.9994979 122.072727,61 L122.072727,61 Z M106.927273,56.5555556 C106.756658,56.5557545 106.618403,56.6800034 106.618182,56.8333333 L106.618182,60.1666667 C106.618403,60.3199966 106.756658,60.4442455 106.927273,60.4444444 L122.072727,60.4444444 C122.243342,60.4442455 122.381597,60.3199966 122.381818,60.1666667 L122.381818,56.8333333 C122.381597,56.6800034 122.243342,56.5557545 122.072727,56.5555556 L106.927273,56.5555556 Z" id="Shape" fill="#3F3D56"></path>
                <rect id="Rectangle" fill="#6C63FF" x="212" y="62" width="31" height="22"></rect>
                <path d="M246.807692,81 L218.192308,81 C217.534105,80.9993003 217.000702,80.4672918 217,79.8108108 L217,60.1891892 C217.000702,59.5327082 217.534105,59.0006997 218.192308,59 L246.807692,59 C247.465896,59.000698 247.9993,59.5327075 248,60.1891892 L248,79.8108108 C247.9993,80.4672925 247.465896,80.999302 246.807692,81 L246.807692,81 Z M218.192308,60.1891892 L218.192308,79.8108108 L246.808557,79.8108108 L246.807683,60.1891892 L218.192308,60.1891892 Z" id="Shape" fill="#3F3D56"></path>
                <path d="M243,60 L241.810811,60 C241.810811,54.5816388 237.418361,50.1891892 232,50.1891892 C226.581639,50.1891892 222.189189,54.5816388 222.189189,60 L221,60 C221,53.9248678 225.924868,49 232,49 C238.075132,49 243,53.9248678 243,60 Z" id="Path" fill="#3F3D56"></path>
                <path d="M235,68.191278 C235.001655,66.6577691 233.975275,65.3403908 232.557054,65.0557135 C231.138834,64.7710363 229.730856,65.5997695 229.205849,67.028227 C228.680842,68.4566846 229.187651,70.0798815 230.412133,70.8916871 L230.412133,74.3126435 C230.412133,74.7601589 230.579451,75.1893451 230.877279,75.5057859 C231.175107,75.8222267 231.579049,76 232.000241,76 L232.000241,76 C232.877327,76 233.588345,75.2445448 233.588345,74.3126435 L233.588345,70.8916903 C234.466143,70.3108811 234.999814,69.2900002 235,68.191278 L235,68.191278 Z" id="Path" fill="#3F3D56"></path>
                <rect id="Rectangle" fill="#3F3D56" x="86" y="169" width="4" height="1"></rect>
                <rect id="Rectangle" fill="#3F3D56" x="93" y="169" width="4" height="1"></rect>
                <rect id="Rectangle" fill="#3F3D56" x="100" y="169" width="4" height="1"></rect>
                <rect id="Rectangle" fill="#3F3D56" x="106" y="169" width="4" height="1"></rect>
                <rect id="Rectangle" fill="#3F3D56" x="113" y="169" width="4" height="1"></rect>
                <path d="M180.784066,204 L38.2159341,204 C37.5446895,204 37,203.46093 37,202.79661 L37,134.20339 C37,133.539069 37.5446888,133 38.2159341,133 L180.784066,133 C181.45533,133 182,133.539051 182,134.20339 L182,202.79661 C182,203.460949 181.45533,204 180.784066,204 L180.784066,204 Z M38.2159341,134.20339 L38.2159341,202.79661 L180.784957,202.79661 L180.784957,134.20339 L38.2159341,134.20339 Z" id="Shape" fill="#3F3D56"></path>
                <circle id="Oval" fill="#3F3D56" cx="44" cy="142" r="2"></circle>
                <circle id="Oval" fill="#3F3D56" cx="50" cy="142" r="2"></circle>
                <circle id="Oval" fill="#3F3D56" cx="57" cy="142" r="2"></circle>
                <path d="M122.085106,174 L80.9148936,174 C80.4098404,173.999458 80.0005513,173.596831 80,173.1 L80,162.9 C80.0005513,162.403169 80.4098404,162.000542 80.9148936,162 L122.085106,162 C122.59016,162.000542 122.999449,162.403169 123,162.9 L123,173.1 C122.999449,173.596831 122.59016,173.999458 122.085106,174 Z M80.9148936,162.6 C80.746536,162.600165 80.6099291,162.734383 80.6099291,162.9 L80.6099291,173.1 C80.6099291,173.265617 80.746536,173.399835 80.9148936,173.4 L122.085106,173.4 C122.253464,173.399835 122.390071,173.265617 122.390071,173.1 L122.390071,162.9 C122.390071,162.734383 122.253464,162.600165 122.085106,162.6 L80.9148936,162.6 Z" id="Shape" fill="#3F3D56"></path>
                <circle id="Oval" fill="#6C63FF" cx="132.5" cy="168.5" r="5.5"></circle>
                <path d="M134,174 C130.686292,174 128,171.313708 128,168 C128,164.686292 130.686292,162 134,162 C137.313708,162 140,164.686292 140,168 C139.996238,171.312149 137.312149,173.996238 134,174 Z M134,162.631579 C131.035103,162.631579 128.631579,165.035103 128.631579,168 C128.631579,170.964897 131.035103,173.368421 134,173.368421 C136.964897,173.368421 139.368421,170.964897 139.368421,168 C139.365114,165.036474 136.963526,162.634886 134,162.631579 Z" id="Shape" fill="#3F3D56"></path>
                <polygon id="Path" fill="#3F3D56" points="133.899468 170 131 166.901562 131.846988 165.996544 133.739534 168.018433 139.020333 160 140 160.737007"></polygon>
                <polygon id="Path" fill="#000000" opacity="0.1" points="131 95 13 95 13 15"></polygon>
                <path d="M174.893609,94.2106341 L160,94.2106341 L160,93.2003228 C160,93.1471939 159.977578,93.0962406 159.937676,93.0586725 C159.897775,93.0211045 159.843657,93 159.787227,93 L154.680843,93 C154.624413,93 154.570294,93.0211035 154.530393,93.0586717 C154.490491,93.0962399 154.468076,93.1471937 154.468078,93.2003228 L154.468078,94.2106341 L151.276589,94.2106341 L151.276589,93.2003228 C151.276591,93.1471934 151.254175,93.0962396 151.214273,93.0586715 C151.174371,93.0211034 151.120252,93 151.063822,93 L145.95744,93 C145.90101,93 145.846891,93.0211034 145.806989,93.0586715 C145.767087,93.0962396 145.744671,93.1471934 145.744673,93.2003228 L145.744673,94.2106341 L142.553183,94.2106341 L142.553183,93.2003228 C142.553186,93.1471937 142.53077,93.0962399 142.490869,93.0586717 C142.450967,93.0211035 142.396849,93 142.340419,93 L137.234037,93 C137.177607,93 137.123488,93.0211034 137.083586,93.0586715 C137.043684,93.0962396 137.021268,93.1471934 137.02127,93.2003228 L137.02127,94.2106341 L133.829781,94.2106341 L133.829781,93.2003228 C133.829782,93.1471934 133.807366,93.0962396 133.767464,93.0586715 C133.727562,93.0211034 133.673443,93 133.617013,93 L128.510631,93 C128.454202,93 128.400083,93.0211035 128.360182,93.0586717 C128.32028,93.0962399 128.297865,93.1471937 128.297867,93.2003228 L128.297867,94.2106341 L125.106378,94.2106341 L125.106378,93.2003228 C125.106379,93.1471934 125.083964,93.0962396 125.044062,93.0586715 C125.00416,93.0211034 124.950041,93 124.893611,93 L119.787229,93 C119.730799,93 119.67668,93.0211034 119.636778,93.0586715 C119.596876,93.0962396 119.57446,93.1471934 119.574462,93.2003228 L119.574462,94.2106341 L116.382972,94.2106341 L116.382972,93.2003228 C116.382975,93.1471937 116.360559,93.0962399 116.320658,93.0586717 C116.280756,93.0211035 116.226638,93 116.170208,93 L111.063823,93 C111.007394,93 110.953275,93.0211045 110.913374,93.0586725 C110.873473,93.0962406 110.851057,93.1471939 110.851059,93.2003228 L110.851059,94.2106341 L107.65957,94.2106341 L107.65957,93.2003228 C107.659571,93.1471934 107.637155,93.0962396 107.597253,93.0586715 C107.557351,93.0211034 107.503232,93 107.446802,93 L67.4468067,93 C67.3903768,93 67.3362577,93.0211034 67.2963558,93.0586715 C67.2564539,93.0962396 67.2340379,93.1471934 67.2340395,93.2003228 L67.2340395,94.2106341 L64.0425501,94.2106341 L64.0425501,93.2003228 C64.0425517,93.1471934 64.0201357,93.0962396 63.9802338,93.0586715 C63.9403319,93.0211034 63.8862128,93 63.8297829,93 L58.723401,93 C58.6669714,93 58.6128526,93.0211035 58.5729512,93.0586717 C58.5330497,93.0962399 58.5106344,93.1471937 58.5106368,93.2003228 L58.5106368,94.2106341 L55.3191474,94.2106341 L55.3191474,93.2003228 C55.319149,93.1471934 55.296733,93.0962396 55.2568311,93.0586715 C55.2169292,93.0211034 55.1628101,93 55.1063802,93 L50,93 C49.9435685,93 49.8894494,93.0211034 49.8495474,93.0586715 C49.8096455,93.0962396 49.7872295,93.1471934 49.7872312,93.2003228 L49.7872312,94.2106341 L46.5957417,94.2106341 L46.5957417,93.2003228 C46.5957441,93.1471937 46.5733288,93.0962399 46.5334274,93.0586717 C46.4935259,93.0211035 46.4394071,93 46.3829776,93 L41.2766017,93 C41.2201724,93 41.166054,93.0211045 41.1261528,93.0586725 C41.0862515,93.0962406 41.0638359,93.1471939 41.0638375,93.2003228 L41.0638375,94.2106341 L37.872339,94.2106341 L37.872339,93.2003228 C37.8723406,93.1471934 37.8499247,93.0962396 37.8100227,93.0586715 C37.7701208,93.0211034 37.7160017,93 37.6595719,93 L32.5531839,93 C32.4967541,93 32.442635,93.0211034 32.402733,93.0586715 C32.3628311,93.0962396 32.3404151,93.1471934 32.3404167,93.2003228 L32.3404167,94.2106341 L29.1489454,94.2106341 L29.1489454,93.2003228 C29.148947,93.1471934 29.1265311,93.0962396 29.0866291,93.0586715 C29.0467272,93.0211034 28.9926081,93 28.9361782,93 L23.8297873,93 C23.7733574,93 23.7192383,93.0211034 23.6793364,93.0586715 C23.6394345,93.0962396 23.6170185,93.1471934 23.6170201,93.2003228 L23.6170201,94.2106341 L20.4255276,94.2106341 L20.4255276,93.2003228 C20.4255292,93.1471939 20.4031137,93.0962406 20.3632124,93.0586725 C20.3233111,93.0211045 20.2691928,93 20.2127635,93 L15.1063816,93 C15.049952,93 14.9958332,93.0211035 14.9559318,93.0586717 C14.9160303,93.0962399 14.893615,93.1471937 14.8936174,93.2003228 L14.8936174,94.2106341 L5.10638191,94.2106341 C3.75208442,94.2106348 2.45325575,94.7171618 1.49562338,95.6187848 C0.537991012,96.5204078 0,97.7432706 0,99.0183573 L0,101.192294 C0,103.847518 2.28620977,106 5.10638191,106 L174.893609,106 C176.247906,106 177.546735,105.493478 178.504369,104.591858 C179.462003,103.690238 180,102.467377 180,101.192291 L180,99.0183573 C180,97.7432691 179.462008,96.520405 178.504373,95.6187818 C177.546739,94.7171585 176.247908,94.2106326 174.893609,94.2106341 L174.893609,94.2106341 Z" id="Path" fill="#3F3D56"></path>
                <path d="M128.088889,65 L47.9111111,65 C47.4081459,64.9994546 47,64.5945144 47,64.0948276 L47,30.9051724 C47,30.4054856 47.4081459,30.0005454 47.9111111,30 L128.088889,30 C128.591854,30.0005454 129,30.4054856 129,30.9051724 L129,64.0948276 C129,64.5945144 128.591854,64.9994546 128.088889,65 L128.088889,65 Z M47.9111111,30.6034483 C47.7434704,30.6034483 47.6074074,30.7386244 47.6074074,30.9051724 L47.6074074,64.0948276 C47.6074074,64.2613756 47.7434704,64.3965517 47.9111111,64.3965517 L128.088889,64.3965517 C128.25653,64.3965517 128.392593,64.2613756 128.392593,64.0948276 L128.392593,30.9051724 C128.392593,30.7386244 128.25653,30.6034483 128.088889,30.6034483 L47.9111111,30.6034483 Z" id="Shape" fill="#3F3D56"></path>
                <path d="M57.1666667,50 L53.8333333,50 C53.3733042,49.9994979 53.0005021,49.6266958 53,49.1666667 L53,45.8333333 C53.0005021,45.3733042 53.3733042,45.0005021 53.8333333,45 L57.1666667,45 C57.6266958,45.0005021 57.9994979,45.3733042 58,45.8333333 L58,49.1666667 C57.9994979,49.6266958 57.6266958,49.9994979 57.1666667,50 L57.1666667,50 Z M53.8333333,45.5555556 C53.6800034,45.5557545 53.5557545,45.6800034 53.5555556,45.8333333 L53.5555556,49.1666667 C53.5557545,49.3199966 53.6800034,49.4442455 53.8333333,49.4444444 L57.1666667,49.4444444 C57.3199966,49.4442455 57.4442455,49.3199966 57.4444444,49.1666667 L57.4444444,45.8333333 C57.4442455,45.6800034 57.3199966,45.5557545 57.1666667,45.5555556 L53.8333333,45.5555556 Z" id="Shape" fill="#3F3D56"></path>
                <rect id="Rectangle" fill="#3F3D56" x="54" y="49" width="69" height="1"></rect>
                <rect id="Rectangle" fill="#3F3D56" x="80" y="82" width="222" height="1"></rect>
                <circle id="Oval" fill="#3F3D56" cx="80" cy="81" r="4"></circle>
                <circle id="Oval" fill="#3F3D56" cx="302" cy="82" r="3"></circle>
                <circle id="Oval" fill="#3F3D56" cx="318" cy="148" r="3"></circle>
                <circle id="Oval" fill="#3F3D56" cx="97" cy="148" r="3"></circle>
            </g>
        </g>
    </g>
</svg>